<?xml version="1.0" encoding="UTF-8"?>
<svg xmlns="http://www.w3.org/2000/svg" xmlns:xlink="http://www.w3.org/1999/xlink" viewBox="0 0 947.65 757.08">
  <defs>
    <style>
      .cls-1 {
        fill: url(#_Черно-белый_2);
      }

      .cls-2 {
        isolation: isolate;
      }

      .cls-3 {
        mix-blend-mode: soft-light;
      }

      .cls-4 {
        fill: url(#_Черно-белый_2-2);
      }

      .cls-5 {
        fill: none;
      }

      .cls-6 {
        fill: url(#_Черно-белый_2-3);
      }

      .cls-7 {
        fill: #984e4c;
      }

      .cls-8 {
        fill: url(#_Черно-белый_2-5);
      }

      .cls-9 {
        fill: url(#_Черно-белый_2-4);
      }
    </style>
    <linearGradient id="_Черно-белый_2" data-name="Черно-белый 2" x1="123.34" y1="18.51" x2="690.91" y2="631.88" gradientUnits="userSpaceOnUse">
      <stop offset="0" stop-color="#c6c229"/>
      <stop offset="1" stop-color="#4a36a1"/>
    </linearGradient>
    <linearGradient id="_Черно-белый_2-2" data-name="Черно-белый 2" x1="81.05" y1="175.04" x2="759.49" y2="683.57" xlink:href="#_Черно-белый_2"/>
    <linearGradient id="_Черно-белый_2-3" data-name="Черно-белый 2" x1="152.94" y1="79.14" x2="831.37" y2="587.66" xlink:href="#_Черно-белый_2"/>
    <linearGradient id="_Черно-белый_2-4" data-name="Черно-белый 2" x1="-65.91" y1="371.12" x2="612.52" y2="879.64" xlink:href="#_Черно-белый_2"/>
    <linearGradient id="_Черно-белый_2-5" data-name="Черно-белый 2" x1="1.51" y1="281.17" x2="679.94" y2="789.69" xlink:href="#_Черно-белый_2"/>
  </defs>
  <g class="cls-2">
    <g id="Layer_2" data-name="Layer 2">
      <g id="Frame-2">
        <g id="Bird">
          <path class="cls-7" d="m947.65,614.48c0,31.13-3.01,61.56-8.74,91.01-25.37-105.1-85.8-196.53-168.22-261.24-45.52-35.73-97.74-63.31-154.48-80.51-23.37,23.4-42.87,50.69-57.41,80.82h0c-7.33,15.18-13.39,31.07-18.08,47.55,0,.01,0,.03-.01.04-7.33,25.8-11.25,53.04-11.25,81.2,0,34.32,5.82,67.28,16.55,97.94h.01c22.73,18.05,47.14,34.08,73,47.77-12.77,7.14-26.11,13.35-39.95,18.56-32.52,12.26-67.74,18.96-104.55,18.96s-72.08-6.7-104.61-18.98c-14.02-5.27-27.53-11.59-40.43-18.86,26.19-13.9,50.9-30.19,73.87-48.59,10.47-30.34,16.16-62.9,16.16-96.81,0-26.1-3.37-51.42-9.71-75.54-5.39-20.59-12.96-40.29-22.42-58.87-13.81-27.12-31.67-51.84-52.77-73.33-57.78,18.38-110.75,47.56-156.54,85.14-83.49,68.56-143.13,165.1-164.57,275.28C4.87,690.27.3,652.92.3,614.48c0-131.94,53.94-251.29,140.99-337.17,67.01-66.15,153.68-112.45,250.44-129.38,18.47-54.43,46.56-104.42,82.25-147.93,35.69,43.51,63.78,93.5,82.25,147.93,96.79,16.94,183.47,63.26,250.5,129.44,87,85.89,140.93,205.2,140.93,337.12Z"/>
          <g class="cls-3">
            <path class="cls-5" d="m577.92,354.41c-3.53,31.25-10.1,61.56-19.41,90.65h0c-5.18,16.27-11.23,32.13-18.08,47.55,0,.01,0,.03-.01.04-17.38,39.16-39.9,75.52-66.73,108.22-25.53-31.12-47.17-65.56-64.17-102.56-8.73-18.98-16.24-38.64-22.42-58.87-8.19-26.77-14.08-54.53-17.43-83.09,34.84-8.16,71.16-12.48,108.48-12.48,34.23,0,67.61,3.63,99.77,10.53Z"/>
          </g>
          <g class="cls-3">
            <path class="cls-5" d="m578.78,738.12c-32.52,12.26-67.74,18.96-104.55,18.96s-72.08-6.7-104.61-18.98c13.85-20.78,25.14-43.41,33.44-67.45,25.9-20.73,49.59-44.14,70.62-69.79,21.42,26.11,45.58,49.9,72.03,70.92h.01c8.25,23.62,19.41,45.88,33.05,66.33Z"/>
          </g>
          <g class="cls-3">
            <path class="cls-5" d="m947.35,614.98c0,31.13-3.01,61.56-8.74,91.01-25.37-105.1-85.8-196.53-168.21-261.24-2.86-54.77-20.57-105.61-49.2-148.55-36.85-55.29-91.76-97.51-156.31-118.21-28.57-9.16-59.03-14.11-90.65-14.11s-62.93,5.09-91.86,14.49c-64.04,20.84-118.51,62.89-155.14,117.85-29.75,44.64-47.71,97.8-49.45,155.03-83.49,68.56-143.13,165.1-164.57,275.28-8.64-35.78-13.21-73.14-13.21-111.57,0-131.94,53.94-251.29,140.99-337.17,67.01-66.15,153.68-112.45,250.44-129.38,26.71-4.68,54.2-7.12,82.25-7.12s55.55,2.44,82.25,7.12c96.79,16.94,183.47,63.26,250.5,129.44,87,85.89,140.93,205.2,140.93,337.12Z"/>
          </g>
          <g class="cls-3">
            <path class="cls-5" d="m564.88,177.99c-28.57-9.16-59.03-14.11-90.65-14.11s-62.93,5.09-91.86,14.49c-64.04,20.84-118.51,62.89-155.14,117.85-29.75,44.64-47.71,97.8-49.45,155.03-83.49,68.56-143.13,165.1-164.57,275.28-8.64-35.78-13.21-73.14-13.21-111.57,0-131.94,53.94-251.29,140.99-337.17,67.01-66.15,153.68-112.45,250.44-129.38,18.47-54.43,46.56-104.42,82.25-147.93,35.69,43.51,63.78,93.5,82.25,147.93,3.29,9.73,6.29,19.57,8.95,29.57Z"/>
          </g>
          <g class="cls-3">
            <path class="cls-5" d="m577.92,354.41c-3.53,31.25-10.1,61.56-19.41,90.65h0c-5.18,16.27-11.23,32.13-18.08,47.55,0,.01,0,.03-.01.04-17.38,39.16-39.9,75.52-66.73,108.22-25.53-31.12-47.17-65.56-64.17-102.56-8.73-18.98-16.24-38.64-22.42-58.87-8.19-26.77-14.08-54.53-17.43-83.09,34.84-8.16,71.16-12.48,108.48-12.48,34.23,0,67.61,3.63,99.77,10.53Z"/>
          </g>
          <g class="cls-3">
            <path class="cls-5" d="m577.92,354.41c-3.53,31.25-10.1,61.56-19.41,90.65h0c-5.18,16.27-11.23,32.13-18.08,47.55,0,.01,0,.03-.01.04-17.38,39.16-39.9,75.52-66.73,108.22-25.53-31.12-47.17-65.56-64.17-102.56-8.73-18.98-16.24-38.64-22.42-58.87-8.19-26.77-14.08-54.53-17.43-83.09,34.84-8.16,71.16-12.48,108.48-12.48,34.23,0,67.61,3.63,99.77,10.53Z"/>
          </g>
          <g class="cls-3">
            <path class="cls-5" d="m947.35,614.98c0,31.13-3.01,61.56-8.74,91.01-25.37-105.1-85.8-196.53-168.21-261.24-2.86-54.77-20.57-105.61-49.2-148.55-36.85-55.29-91.76-97.51-156.31-118.21-28.57-9.16-59.03-14.11-90.65-14.11s-62.93,5.09-91.86,14.49c2.7-10.11,5.72-20.11,9.06-29.95,18.47-54.43,46.56-104.42,82.25-147.93,35.69,43.51,63.78,93.5,82.25,147.93,96.79,16.94,183.47,63.26,250.5,129.44,87,85.89,140.93,205.2,140.93,337.12Z"/>
          </g>
          <g class="cls-3">
            <path class="cls-5" d="m577.92,354.41c-3.53,31.25-10.1,61.56-19.41,90.65h0c-5.18,16.27-11.23,32.13-18.08,47.55,0,.01,0,.03-.01.04-17.38,39.16-39.9,75.52-66.73,108.22-25.53-31.12-47.17-65.56-64.17-102.56-8.73-18.98-16.24-38.64-22.42-58.87-8.19-26.77-14.08-54.53-17.43-83.09,34.84-8.16,71.16-12.48,108.48-12.48,34.23,0,67.61,3.63,99.77,10.53Z"/>
          </g>
          <g class="cls-3">
            <path class="cls-5" d="m578.78,738.12c-32.52,12.26-67.74,18.96-104.55,18.96s-72.08-6.7-104.61-18.98c13.85-20.78,25.14-43.41,33.44-67.45,25.9-20.73,49.59-44.14,70.62-69.79,21.42,26.11,45.58,49.9,72.03,70.92h.01c8.25,23.62,19.41,45.88,33.05,66.33Z"/>
          </g>
          <g class="cls-3">
            <path class="cls-5" d="m473.68,600.87c-21.03,25.65-44.72,49.05-70.62,69.79,10.47-30.34,16.16-62.9,16.16-96.81,0-26.1-3.37-51.42-9.71-75.54,17,37,38.64,71.44,64.17,102.56Z"/>
          </g>
          <g class="cls-3">
            <path class="cls-5" d="m545.71,671.79c-26.45-21.02-50.61-44.81-72.03-70.92,26.83-32.7,49.35-69.06,66.73-108.22-7.33,25.8-11.25,53.04-11.25,81.2,0,34.32,5.82,67.28,16.55,97.94Z"/>
          </g>
          <g class="cls-3">
            <path class="cls-5" d="m577.92,354.41c-3.53,31.25-10.1,61.56-19.41,90.65h0c-5.18,16.27-11.23,32.13-18.08,47.55,0,.01,0,.03-.01.04-17.38,39.16-39.9,75.52-66.73,108.22-25.53-31.12-47.17-65.56-64.17-102.56-8.73-18.98-16.24-38.64-22.42-58.87-8.19-26.77-14.08-54.53-17.43-83.09,34.84-8.16,71.16-12.48,108.48-12.48,34.23,0,67.61,3.63,99.77,10.53Z"/>
          </g>
          <g class="cls-3">
            <path class="cls-5" d="m578.78,738.12c-32.52,12.26-67.74,18.96-104.55,18.96s-72.08-6.7-104.61-18.98c13.85-20.78,25.14-43.41,33.44-67.45,25.9-20.73,49.59-44.14,70.62-69.79,21.42,26.11,45.58,49.9,72.03,70.92h.01c8.25,23.62,19.41,45.88,33.05,66.33Z"/>
          </g>
          <g class="cls-3">
            <path class="cls-1" d="m770.4,444.75c-45.52-35.73-97.74-63.31-154.48-80.51-12.45-3.8-25.13-7.08-38-9.83-32.16-6.9-65.54-10.53-99.77-10.53-37.33,0-73.64,4.32-108.48,12.48-11.96,2.8-23.76,6.06-35.35,9.76-57.78,18.38-110.75,47.56-156.54,85.14,1.74-57.23,19.71-110.39,49.45-155.03,36.63-54.96,91.1-97.01,155.14-117.85,28.93-9.4,59.81-14.49,91.86-14.49s62.08,4.95,90.65,14.11c64.56,20.7,119.46,62.92,156.31,118.21,28.63,42.94,46.34,93.78,49.2,148.55Z"/>
          </g>
          <g class="cls-3">
            <path class="cls-5" d="m227.23,296.23c-29.75,44.64-47.71,97.8-49.45,155.03-83.49,68.56-143.13,165.1-164.57,275.28-8.64-35.78-13.21-73.14-13.21-111.57,0-131.94,53.94-251.29,140.99-337.17,30.19,1.85,59.16,8.22,86.25,18.43Z"/>
          </g>
          <g class="cls-3">
            <path class="cls-5" d="m409.5,498.31c-8.73-18.98-16.24-38.64-22.42-58.87,9.46,18.57,17.03,38.28,22.42,58.87Z"/>
          </g>
          <g class="cls-3">
            <path class="cls-5" d="m558.5,445.07c-5.18,16.25-11.23,32.11-18.08,47.53,4.69-16.47,10.75-32.37,18.08-47.53Z"/>
          </g>
          <g class="cls-3">
            <path class="cls-5" d="m947.35,614.98c0,31.13-3.01,61.56-8.74,91.01-25.37-105.1-85.8-196.53-168.21-261.24-2.86-54.77-20.57-105.61-49.2-148.55,26.78-10.08,55.41-16.41,85.23-18.34,87,85.89,140.93,205.2,140.93,337.12Z"/>
          </g>
          <g>
            <g class="cls-3">
              <path class="cls-4" d="m369.66,356.36c-11.96,2.8-23.76,6.06-35.35,9.76,21.11,21.49,38.97,46.21,52.77,73.33-8.19-26.77-14.08-54.53-17.43-83.09Z"/>
            </g>
            <g class="cls-3">
              <path class="cls-6" d="m577.92,354.41c-3.53,31.25-10.1,61.56-19.41,90.65,14.54-30.13,34.04-57.42,57.41-80.82-12.45-3.8-25.13-7.08-38-9.83Z"/>
            </g>
            <g class="cls-3">
              <path class="cls-9" d="m369.62,738.1c13.85-20.78,25.14-43.41,33.44-67.45-22.97,18.4-47.68,34.69-73.87,48.59,12.9,7.27,26.41,13.58,40.43,18.86Z"/>
            </g>
            <g class="cls-3">
              <path class="cls-8" d="m545.73,671.79c8.25,23.62,19.41,45.88,33.05,66.33,13.84-5.21,27.18-11.42,39.95-18.56-25.86-13.69-50.27-29.72-73-47.77Z"/>
            </g>
          </g>
        </g>
      </g>
    </g>
  </g>
</svg>